# xmcd
# 
# Track frame offsets:
#     150
#     27242
#     37697
#     58760
#     75702
#     101240
#     127992
#     145840
#     165817
#     184272
#     213987
#     228162
# 
# Disc length: 3289
# 
# Revision: 5
# Processed by: cddbd v1.5.2PL0 Copyright (c) Steve Scherf et al.
# Submitted via: fre:ac v1.0.27
# 
DISCID=930cd70c
DTITLE=Enrico Rava - Tati
DYEAR=2005
DGENRE=Jazz
TTITLE0=The man I love
TTITLE1=Birdsong
TTITLE2=Tati
TTITLE3=Casa di bambola
TTITLE4=E lucevan le stelle
TTITLE5=Mirrors
TTITLE6=Jessica too
TTITLE7=Golden eyes
TTITLE8=Fantasm
TTITLE9=Cornettology
TTITLE10=Overboard
TTITLE11=Gang of 5
EXTD=YEAR: 2005
EXTT0=
EXTT1=
EXTT2=
EXTT3=
EXTT4=
EXTT5=
EXTT6=
EXTT7=
EXTT8=
EXTT9=
EXTT10=
EXTT11=
PLAYORDER=
